<?xml version="1.0" standalone="no"?>
<!DOCTYPE svg PUBLIC "-//W3C//DTD SVG 20010904//EN"
 "http://www.w3.org/TR/2001/REC-SVG-20010904/DTD/svg10.dtd">
<svg version="1.0" xmlns="http://www.w3.org/2000/svg"
 width="600.000000pt" height="600.000000pt" viewBox="0 0 600.000000 600.000000"
 preserveAspectRatio="xMidYMid meet">
<metadata>
Created by potrace 1.16, written by Peter Selinger 2001-2019
</metadata>
<g transform="translate(0.000000,600.000000) scale(0.100000,-0.100000)"
fill="#000000" stroke="none">
<path d="M602 3503 l3 -1108 1105 0 1105 0 3 1099 c2 873 0 1101 -10 1108 -7
4 -507 8 -1111 8 l-1097 0 2 -1107z m1345 996 c41 -23 85 -51 98 -63 l24 -21
-70 -95 c-39 -52 -73 -101 -76 -109 -4 -8 -14 -22 -22 -32 -9 -9 -56 -71 -104
-138 -49 -66 -93 -121 -98 -121 -14 0 -93 43 -97 53 -2 4 -9 7 -16 7 -7 0 -28
7 -46 17 -36 17 -73 23 -190 30 -80 5 -218 -18 -230 -38 -4 -6 -10 -10 -14 -9
-12 4 -66 -22 -66 -31 0 -5 -6 -9 -13 -9 -28 0 -177 -131 -177 -155 0 -4 -11
-21 -23 -38 -30 -40 -65 -110 -71 -139 -3 -13 -10 -39 -15 -58 -22 -72 1 -325
32 -356 4 -4 7 -16 7 -26 0 -10 5 -18 10 -18 6 0 10 -9 10 -20 0 -11 5 -20 10
-20 6 0 10 -6 10 -12 0 -7 16 -30 35 -51 19 -20 38 -43 42 -50 22 -37 144
-120 218 -148 69 -28 96 -32 203 -37 85 -3 122 -1 122 6 0 6 7 9 15 5 18 -6
122 30 169 58 17 10 40 23 51 28 21 10 119 102 145 136 30 39 55 81 72 118 17
37 17 37 -5 37 -12 0 -40 -5 -62 -10 -39 -10 -105 -19 -155 -23 -26 -2 -31 12
-45 128 -11 89 -26 191 -32 205 -6 16 -6 18 -17 116 l-8 61 39 1 c21 1 76 8
123 17 47 8 144 24 215 35 198 30 507 80 536 86 25 5 28 2 44 -53 9 -32 19
-65 22 -73 3 -8 7 -26 8 -40 1 -14 8 -61 15 -104 15 -100 7 -260 -19 -383 -22
-101 -106 -324 -133 -353 -10 -11 -18 -22 -18 -25 0 -11 -99 -150 -135 -189
-19 -21 -35 -42 -35 -47 0 -5 -5 -9 -10 -9 -6 0 -29 -17 -51 -37 l-41 -38
-721 -5 c-397 -3 -725 -3 -730 1 -4 3 -6 454 -5 1004 l3 998 30 18 c105 63 47
58 634 59 l534 0 74 -41z"/>
<path d="M3163 3503 l2 -1108 1105 0 1105 0 3 1099 c2 873 0 1101 -10 1108 -7
4 -507 8 -1110 8 l-1098 0 3 -1107z m451 892 c9 -77 18 -171 21 -210 3 -38 15
-148 25 -242 11 -95 20 -189 20 -208 0 -19 4 -35 10 -35 5 0 7 -12 5 -27 -3
-16 4 -102 15 -193 11 -91 22 -189 25 -218 6 -58 67 -202 87 -202 6 0 9 -3 5
-6 -3 -3 16 -27 42 -52 64 -62 136 -87 250 -87 57 1 86 5 89 13 2 7 8 10 12 7
11 -7 83 37 123 74 16 14 44 59 64 98 31 63 36 86 41 164 5 85 -5 214 -29 399
-6 41 -12 98 -14 125 -11 138 -27 292 -32 305 -4 13 -7 38 -14 135 -5 58 -28
272 -31 285 -4 20 100 26 403 21 l236 -3 12 -102 c6 -55 12 -108 12 -116 1 -8
10 -100 20 -205 11 -104 24 -233 29 -286 5 -52 19 -185 30 -296 22 -216 18
-364 -15 -463 -8 -25 -16 -54 -18 -65 -2 -11 -10 -33 -16 -50 -7 -16 -14 -34
-15 -40 -1 -5 -16 -35 -34 -66 -17 -31 -32 -60 -32 -63 0 -4 -6 -13 -12 -20
-7 -7 -24 -28 -38 -46 -84 -112 -133 -160 -223 -221 l-58 -39 -521 0 -520 0
-87 69 c-78 63 -151 138 -190 195 -8 12 -17 23 -21 26 -3 3 -13 17 -23 32 -16
25 -17 90 -17 892 l0 866 178 2 c97 2 180 1 183 -2 4 -3 14 -68 23 -145z"/>
<path d="M4266 2012 c-65 -38 -139 -126 -154 -182 -29 -110 -6 -153 138 -250
81 -54 106 -80 88 -92 -25 -15 -70 -8 -132 21 -80 38 -99 43 -130 35 -36 -9
-32 -26 16 -67 41 -35 50 -40 120 -71 73 -32 168 -14 230 45 42 40 48 71 20
105 -17 21 -136 104 -148 104 -4 0 -17 11 -30 26 -51 54 -19 152 67 208 36 23
42 6 24 -70 -13 -58 -9 -82 19 -109 14 -13 63 -35 80 -35 14 0 53 112 61 175
5 44 -22 112 -43 108 -7 -2 -12 1 -12 5 0 5 -22 21 -49 35 -57 32 -122 35
-165 9z"/>
<path d="M4780 2013 c-77 -11 -192 -37 -196 -44 -5 -9 -31 -171 -32 -204 -1
-11 -10 -78 -22 -150 -15 -95 -17 -135 -10 -150 14 -27 74 -65 102 -65 44 0
178 24 178 31 0 5 6 6 14 3 8 -3 21 -2 29 3 13 7 13 13 -1 45 -9 21 -22 40
-28 42 -6 2 -48 1 -93 -3 -44 -4 -81 -6 -81 -5 0 1 9 22 19 47 16 37 25 46 53
50 84 14 153 28 156 32 3 2 1 12 -3 22 -5 10 -9 21 -9 25 -1 4 -9 16 -18 28
-19 22 -61 26 -101 11 -21 -8 -26 -6 -30 10 -3 10 -2 19 3 19 4 0 13 27 20 60
l13 59 43 6 c24 3 65 8 92 11 26 3 55 7 65 10 23 7 22 49 -4 85 -19 27 -25 29
-77 28 -31 -1 -68 -3 -82 -6z"/>
<path d="M5293 2005 c-7 -8 -13 -24 -13 -35 0 -12 -14 -85 -31 -163 -48 -216
-98 -339 -136 -332 -10 2 -21 4 -25 4 -14 2 -8 164 7 220 8 30 14 57 13 60 -1
3 2 13 5 21 36 91 42 145 17 175 -19 22 -96 56 -113 49 -30 -11 -96 -365 -82
-436 9 -49 27 -90 49 -115 47 -54 184 -74 250 -36 23 13 62 65 91 121 47 91
69 185 72 317 3 117 2 120 -21 137 -34 25 -69 30 -83 13z"/>
<path d="M3641 1982 c-48 -18 -151 -105 -151 -128 0 -8 -4 -14 -9 -14 -14 0
-22 -38 -27 -124 -4 -69 -1 -86 21 -135 25 -54 87 -121 112 -121 7 0 13 -4 13
-9 0 -7 36 -22 62 -25 3 -1 10 -4 14 -8 12 -12 124 -9 124 3 0 16 -65 39 -110
39 -47 0 -74 13 -112 55 -33 36 -52 117 -42 172 4 21 8 45 9 53 3 28 43 96 77
129 47 47 103 71 170 71 80 0 120 -22 153 -83 25 -44 27 -57 23 -121 -7 -105
-70 -216 -113 -200 -10 4 -10 17 1 65 8 33 13 63 12 67 -1 4 4 20 11 36 13 33
6 66 -15 66 -8 0 -14 6 -14 13 0 8 -8 24 -19 35 -46 54 -149 6 -195 -92 -29
-62 -33 -104 -11 -145 21 -42 123 -79 140 -51 8 12 45 13 45 1 0 -23 75 -35
137 -21 11 2 63 65 63 76 0 8 4 14 9 14 8 0 24 49 36 116 7 35 -12 124 -26
124 -5 0 -9 6 -9 14 0 8 -20 34 -44 59 -78 77 -230 109 -335 69z m179 -210 c0
-36 -45 -154 -71 -184 -23 -28 -29 -31 -43 -19 -33 28 -13 121 40 184 40 48
74 56 74 19z"/>
</g>
</svg>
